<svg width="85" height="85" viewBox="0 0 85 85" fill="none" xmlns="http://www.w3.org/2000/svg">
<g clip-path="url(#clip0_14_248)">
<path d="M42.5 85C65.9721 85 85 65.9721 85 42.5C85 19.0279 65.9721 0 42.5 0C19.0279 0 0 19.0279 0 42.5C0 65.9721 19.0279 85 42.5 85Z" fill="#0585E8"/>
<path d="M74.7659 17.7405V70.163C66.9719 79.2458 55.4084 84.9998 42.5006 84.9998C29.591 84.9998 18.0258 79.2441 10.2335 70.1595V17.7405H74.7659Z" fill="#F1F1F1"/>
<path d="M10.2335 17.7405H74.7659V25.9262H10.2335V17.7405Z" fill="#E4E4E4"/>
<path d="M74.4576 21.3834H10.5424C9.01329 21.3834 7.77368 20.1438 7.77368 18.6147V8.01949C7.77368 6.49036 9.01329 5.25075 10.5424 5.25075H74.4576C75.9867 5.25075 77.2263 6.49036 77.2263 8.01949V18.6147C77.2263 20.1438 75.9867 21.3834 74.4576 21.3834Z" fill="#20BF55"/>
<path d="M58.8929 29.363H26.1071C24.9576 29.363 24.0255 28.4309 24.0255 27.2814C24.0255 26.1318 24.9576 25.1997 26.1071 25.1997H58.8929C60.0424 25.1997 60.9745 26.1318 60.9745 27.2814C60.9745 28.4309 60.0424 29.363 58.8929 29.363Z" fill="#1E1E1E"/>
<path d="M31.9695 43.0671C34.173 43.0671 35.9593 41.2808 35.9593 39.0773C35.9593 36.8738 34.173 35.0875 31.9695 35.0875C29.766 35.0875 27.9797 36.8738 27.9797 39.0773C27.9797 41.2808 29.766 43.0671 31.9695 43.0671Z" fill="#20BF55"/>
<path d="M42.5001 43.0671C44.7036 43.0671 46.4898 41.2808 46.4898 39.0773C46.4898 36.8738 44.7036 35.0875 42.5001 35.0875C40.2965 35.0875 38.5103 36.8738 38.5103 39.0773C38.5103 41.2808 40.2965 43.0671 42.5001 43.0671Z" fill="#20BF55"/>
<path d="M63.561 43.0671C65.7645 43.0671 67.5508 41.2808 67.5508 39.0773C67.5508 36.8738 65.7645 35.0875 63.561 35.0875C61.3575 35.0875 59.5712 36.8738 59.5712 39.0773C59.5712 41.2808 61.3575 43.0671 63.561 43.0671Z" fill="#20BF55"/>
<path d="M31.9695 54.3426C34.173 54.3426 35.9593 52.5563 35.9593 50.3528C35.9593 48.1493 34.173 46.363 31.9695 46.363C29.766 46.363 27.9797 48.1493 27.9797 50.3528C27.9797 52.5563 29.766 54.3426 31.9695 54.3426Z" fill="#20BF55"/>
<path d="M42.5001 54.3426C44.7036 54.3426 46.4898 52.5563 46.4898 50.3528C46.4898 48.1493 44.7036 46.363 42.5001 46.363C40.2965 46.363 38.5103 48.1493 38.5103 50.3528C38.5103 52.5563 40.2965 54.3426 42.5001 54.3426Z" fill="#20BF55"/>
<path d="M53.0304 54.3426C55.2339 54.3426 57.0202 52.5563 57.0202 50.3528C57.0202 48.1493 55.2339 46.363 53.0304 46.363C50.8269 46.363 49.0406 48.1493 49.0406 50.3528C49.0406 52.5563 50.8269 54.3426 53.0304 54.3426Z" fill="#20BF55"/>
<path d="M53.0304 43.0671C55.2339 43.0671 57.0202 41.2808 57.0202 39.0773C57.0202 36.8738 55.2339 35.0875 53.0304 35.0875C50.8269 35.0875 49.0406 36.8738 49.0406 39.0773C49.0406 41.2808 50.8269 43.0671 53.0304 43.0671Z" fill="#20BF55"/>
<path d="M63.561 54.3426C65.7645 54.3426 67.5508 52.5563 67.5508 50.3528C67.5508 48.1493 65.7645 46.363 63.561 46.363C61.3575 46.363 59.5712 48.1493 59.5712 50.3528C59.5712 52.5563 61.3575 54.3426 63.561 54.3426Z" fill="#20BF55"/>
<path d="M21.4391 65.6181C23.6426 65.6181 25.4289 63.8318 25.4289 61.6283C25.4289 59.4248 23.6426 57.6385 21.4391 57.6385C19.2356 57.6385 17.4493 59.4248 17.4493 61.6283C17.4493 63.8318 19.2356 65.6181 21.4391 65.6181Z" fill="#20BF55"/>
<path d="M31.9697 65.6181C34.1732 65.6181 35.9595 63.8318 35.9595 61.6283C35.9595 59.4248 34.1732 57.6385 31.9697 57.6385C29.7662 57.6385 27.9799 59.4248 27.9799 61.6283C27.9799 63.8318 29.7662 65.6181 31.9697 65.6181Z" fill="#20BF55"/>
<path d="M42.5001 65.6181C44.7036 65.6181 46.4898 63.8318 46.4898 61.6283C46.4898 59.4248 44.7036 57.6385 42.5001 57.6385C40.2965 57.6385 38.5103 59.4248 38.5103 61.6283C38.5103 63.8318 40.2965 65.6181 42.5001 65.6181Z" fill="#20BF55"/>
<path d="M42.5001 76.8936C44.7036 76.8936 46.4898 75.1073 46.4898 72.9038C46.4898 70.7003 44.7036 68.914 42.5001 68.914C40.2965 68.914 38.5103 70.7003 38.5103 72.9038C38.5103 75.1073 40.2965 76.8936 42.5001 76.8936Z" fill="#20BF55"/>
<path d="M53.0306 65.6181C55.2341 65.6181 57.0204 63.8318 57.0204 61.6283C57.0204 59.4248 55.2341 57.6385 53.0306 57.6385C50.8271 57.6385 49.0408 59.4248 49.0408 61.6283C49.0408 63.8318 50.8271 65.6181 53.0306 65.6181Z" fill="#20BF55"/>
<path d="M63.561 65.6181C65.7645 65.6181 67.5508 63.8318 67.5508 61.6283C67.5508 59.4248 65.7645 57.6385 63.561 57.6385C61.3575 57.6385 59.5712 59.4248 59.5712 61.6283C59.5712 63.8318 61.3575 65.6181 63.561 65.6181Z" fill="#20BF55"/>
<path d="M21.4391 76.8936C23.6426 76.8936 25.4289 75.1073 25.4289 72.9038C25.4289 70.7003 23.6426 68.914 21.4391 68.914C19.2356 68.914 17.4493 70.7003 17.4493 72.9038C17.4493 75.1073 19.2356 76.8936 21.4391 76.8936Z" fill="#20BF55"/>
<path d="M31.9695 76.8936C34.173 76.8936 35.9593 75.1073 35.9593 72.9038C35.9593 70.7003 34.173 68.914 31.9695 68.914C29.766 68.914 27.9797 70.7003 27.9797 72.9038C27.9797 75.1073 29.766 76.8936 31.9695 76.8936Z" fill="#20BF55"/>
<path d="M27.9919 17.2482C30.1474 17.2482 31.8948 15.5009 31.8948 13.3453C31.8948 11.1898 30.1474 9.44246 27.9919 9.44246C25.8364 9.44246 24.089 11.1898 24.089 13.3453C24.089 15.5009 25.8364 17.2482 27.9919 17.2482Z" fill="#1E1E1E"/>
<path d="M57.0081 17.1917C59.1636 17.1917 60.911 15.4443 60.911 13.2888C60.911 11.1333 59.1636 9.38591 57.0081 9.38591C54.8526 9.38591 53.1052 11.1333 53.1052 13.2888C53.1052 15.4443 54.8526 17.1917 57.0081 17.1917Z" fill="#1E1E1E"/>
<path d="M21.4391 54.3426C23.6426 54.3426 25.4289 52.5563 25.4289 50.3528C25.4289 48.1493 23.6426 46.363 21.4391 46.363C19.2356 46.363 17.4493 48.1493 17.4493 50.3528C17.4493 52.5563 19.2356 54.3426 21.4391 54.3426Z" fill="#20BF55"/>
</g>
<defs>
<clipPath id="clip0_14_248">
<rect width="85" height="85" fill="white"/>
</clipPath>
</defs>
</svg>
