<svg width="85" height="85" viewBox="0 0 85 85" fill="none" xmlns="http://www.w3.org/2000/svg">
<g clip-path="url(#clip0_15_2)">
<path d="M11.7149 69.2518C10.7641 69.4576 9.78261 69.0894 9.19965 68.3105C4.00905 61.3741 0.933105 52.7635 0.933105 43.4331C0.933105 20.4901 19.5211 1.88832 42.4591 1.86626C65.0223 1.84454 83.5869 19.9867 84.0575 42.545C84.2694 52.7 80.8385 62.048 74.9822 69.372C74.3719 70.1353 73.3735 70.4714 72.4264 70.23C62.5795 67.7206 51.5875 66.3183 39.9926 66.3183C30.0038 66.3183 20.4622 67.359 11.7149 69.2518Z" fill="#0585E8"/>
<path d="M42.5464 4.69282L60.5416 22.688C61.2042 23.3506 61.2042 24.4249 60.5416 25.0874L32.6828 52.9462C32.0203 53.6087 30.946 53.6087 30.2835 52.9462L12.2883 34.951C11.6258 34.2884 11.6258 33.2141 12.2883 32.5516L40.1471 4.69282C40.8096 4.03029 41.8839 4.03029 42.5464 4.69282Z" fill="#A4DFC7"/>
<path d="M46.1455 8.29182L60.5417 22.688C61.2043 23.3506 61.2043 24.4248 60.5417 25.0874L32.683 52.9462C32.0204 53.6087 30.9461 53.6087 30.2836 52.9462L15.8874 38.5499C15.2249 37.8874 15.2249 36.8131 15.8874 36.1506L43.7462 8.29182C44.4087 7.62929 45.483 7.62929 46.1455 8.29182Z" fill="#C5F0DF"/>
<path d="M39.1274 25.6871C43.3182 29.8779 43.3182 36.6725 39.1274 40.8631C34.9366 45.0537 28.1422 45.0539 23.9514 40.8631C19.7607 36.6723 19.7607 29.8777 23.9514 25.6871C28.1422 21.4965 34.9366 21.4965 39.1274 25.6871ZM47.3451 14.2903L42.5464 9.49164C41.8839 8.82912 40.8096 8.82912 40.1471 9.49164L35.3484 14.2903C34.6859 14.9529 34.6859 16.0271 35.3484 16.6897C38.6612 20.0025 44.0323 20.0025 47.3453 16.6897C48.0078 16.027 48.0078 14.9529 47.3451 14.2903Z" fill="#20BF55"/>
<path d="M61.2092 0.496924L79.2044 18.4922C79.8669 19.1547 79.8669 20.229 79.2044 20.8915L42.0143 58.0816C41.3517 58.7441 40.2774 58.7441 39.6149 58.0816L21.6197 40.0864C20.9572 39.4239 20.9572 38.3496 21.6197 37.6871L58.8098 0.496924C59.4723 -0.165601 60.5466 -0.165601 61.2092 0.496924Z" fill="#A4DFC7"/>
<path d="M64.8082 4.09592L79.2044 18.4921C79.8669 19.1547 79.8669 20.229 79.2044 20.8915L42.0143 58.0816C41.3517 58.7441 40.2774 58.7441 39.6149 58.0816L25.2187 43.6854C24.5562 43.0229 24.5562 41.9486 25.2187 41.286L62.4088 4.09592C63.0714 3.4334 64.1456 3.4334 64.8082 4.09592Z" fill="#C5F0DF"/>
<path d="M54.0111 12.4938C53.3486 11.8313 53.3486 10.757 54.0111 10.0945L58.8098 5.29578C59.4723 4.63326 60.5466 4.63326 61.2091 5.29578L66.0078 10.0945C66.6704 10.757 66.6704 11.8313 66.0078 12.4938C62.695 15.8066 57.3239 15.8066 54.0111 12.4938ZM74.4057 18.4922L69.607 13.6935C68.9445 13.031 67.8702 13.031 67.2077 13.6935C63.8949 17.0063 63.8949 22.3774 67.2077 25.6902C67.8702 26.3527 68.9445 26.3527 69.607 25.6902L74.4057 20.8915C75.0682 20.229 75.0682 19.1547 74.4057 18.4922ZM42.6142 21.4914C38.4234 25.682 38.4234 32.4766 42.6142 36.6674C46.8049 40.8582 53.5994 40.8582 57.7901 36.6674C61.9809 32.4766 61.9809 25.682 57.7901 21.4914C53.5994 17.3006 46.8048 17.3006 42.6142 21.4914Z" fill="#20BF55"/>
<path d="M42.5 85C28.5415 85 16.1909 78.1192 8.65271 67.5652V32.4052C8.65271 29.5941 10.9314 27.3154 13.7425 27.3154H69.7306C72.5417 27.3154 74.8204 29.5941 74.8204 32.4052V69.5689C67.1999 78.9809 55.5537 85 42.5 85Z" fill="#E4E4E4"/>
<path d="M13.5729 56.1711V32.4052C13.5729 29.5941 15.8516 27.3154 18.6627 27.3154H69.7306C72.5417 27.3154 74.8204 29.5941 74.8204 32.4052V69.5689C71.419 73.7698 67.2167 77.295 62.4436 79.9102H37.312C31.7829 79.9102 26.4274 77.9803 22.1692 74.4534C16.7243 69.9435 13.5729 63.2412 13.5729 56.1711Z" fill="#F1F1F1"/>
<path d="M74.6008 62.4441H52.5449C51.4156 62.4441 50.5 61.5285 50.5 60.3992V51.9162C50.5 50.7868 51.4156 49.8712 52.5449 49.8712H74.6008C75.7301 49.8712 76.6457 50.7868 76.6457 51.9162V60.3992C76.6457 61.5285 75.7301 62.4441 74.6008 62.4441Z" fill="#F1F1F1" stroke="#1E1E1E"/>
<path d="M56.8362 60.3992C54.4937 60.3992 52.5947 58.5002 52.5947 56.1577C52.5947 53.8152 54.4937 51.9162 56.8362 51.9162C59.1787 51.9162 61.0778 53.8152 61.0778 56.1577C61.0778 58.5002 59.1787 60.3992 56.8362 60.3992Z" fill="#1E1E1E"/>
</g>
<defs>
<clipPath id="clip0_15_2">
<rect width="85" height="85" fill="white"/>
</clipPath>
</defs>
</svg>
