<svg width="85" height="85" viewBox="0 0 85 85" fill="none" xmlns="http://www.w3.org/2000/svg">
<g clip-path="url(#clip0_14_204)">
<path d="M85 42.5002C85 50.4558 82.8139 57.9009 79.0093 64.2676C77.6674 66.5147 76.1246 68.627 74.4029 70.5791C73.3615 71.7624 72.2555 72.885 71.0905 73.9449C69.9311 75.001 68.7109 75.9928 67.439 76.9144C67.1238 77.1448 66.8049 77.3696 66.4843 77.5891C65.4151 78.3227 64.3091 79.0065 63.1719 79.6407C58.0937 82.4739 52.3739 84.2949 46.2855 84.8333C45.0375 84.9421 43.775 84.9992 42.4993 84.9992C41.2238 84.9992 39.9611 84.9421 38.7132 84.8333C30.4607 84.1034 22.8848 81.0158 16.6655 76.2492C13.6923 73.9689 11.0268 71.3036 8.7467 68.3286C3.26071 61.1691 0 52.2162 0 42.5002C0 19.0276 19.0284 0.00117111 42.499 0.00117111C52.6685 0.00117111 62.0048 3.5735 69.319 9.53097C71.048 10.9375 72.6645 12.4802 74.152 14.1392C74.2369 14.2332 74.3197 14.3273 74.4027 14.4213C76.1243 16.3733 77.6673 18.4857 79.0092 20.7327C82.8139 27.0994 85 34.5445 85 42.5002Z" fill="#0585E8"/>
<path d="M79.0093 9.53079V64.2675C77.6674 66.5145 76.1247 68.6269 74.4029 70.5789C73.3615 71.7622 72.2555 72.8848 71.0906 73.9447C69.9311 75.0009 68.7109 75.9927 67.439 76.9142H24.5841V9.53079H79.0093Z" fill="#F1F1F1"/>
<path d="M74.4029 14.1391V70.5791C73.3615 71.7624 72.2555 72.885 71.0906 73.9449C69.9311 75.001 68.7109 75.9928 67.439 76.9144H24.5841V14.1391H74.4029Z" fill="#E4E4E4"/>
<path d="M71.0906 17.4514V73.9449C69.9311 75.001 68.7109 75.9928 67.4391 76.9144C67.1238 77.1448 66.8049 77.3696 66.4843 77.5891C65.4152 78.3227 64.3092 79.0065 63.172 79.6407C58.0937 82.4739 52.374 84.2949 46.2855 84.8333H38.7132C30.4608 84.1034 22.8848 81.0158 16.6655 76.2491V17.4514H71.0906Z" fill="#F1F1F1"/>
<path d="M66.4841 22.0578V77.5891C65.4149 78.3227 64.3089 79.0065 63.1717 79.6407C58.0935 82.4739 52.3737 84.2949 46.2853 84.8333H38.713C30.4605 84.1033 22.8846 81.0158 16.6653 76.2491V22.0578H66.4841Z" fill="#E4E4E4"/>
<path d="M63.1716 25.3683V79.6405C58.0933 82.4737 52.3736 84.2948 46.2851 84.8331C45.0372 84.9419 43.7746 84.999 42.499 84.999C41.2235 84.999 39.9608 84.9419 38.7128 84.8331C30.4604 84.1032 22.8844 81.0156 16.6651 76.249C13.6919 73.9688 11.0264 71.3034 8.74634 68.3284V25.3685H63.1716V25.3683Z" fill="#F1F1F1"/>
<path d="M39.428 32.4126H15.8339V35.6075H39.428V32.4126Z" fill="#1E1E1E"/>
<path d="M55.7726 43.1036H15.8339V46.2986H55.7726V43.1036Z" fill="#1E1E1E"/>
<path d="M55.7726 50.1063H15.8339V53.3013H55.7726V50.1063Z" fill="#1E1E1E"/>
<path d="M55.7726 57.1109H15.8339V60.3058H55.7726V57.1109Z" fill="#1E1E1E"/>
<path d="M55.7726 64.1154H15.8339V67.3104H55.7726V64.1154Z" fill="#1E1E1E"/>
<path d="M56.9591 74.9456C55.6373 75.3472 54.3645 76.0088 52.9907 76.2228C52.7247 76.2643 52.4269 76.3061 52.1585 76.2571C51.7574 76.1837 51.8044 76.233 51.8834 76.0423C51.9524 75.8753 52.2727 75.7083 52.3753 75.5283C52.5033 75.304 52.545 75.0743 52.5464 74.8199C52.5496 74.336 52.0039 73.8079 51.4966 74.0201C50.3414 74.503 49.2422 75.1422 48.0551 75.5438C47.5588 75.7118 45.6739 76.1341 46.8518 75.2446C47.6878 74.6131 46.8868 73.1794 46.0146 73.8122C44.8973 74.6227 43.77 75.4347 42.4009 75.7006C42.4907 75.5565 42.5853 75.3882 42.6254 75.3381C42.9229 74.965 43.2793 74.6267 43.5225 74.2131C44.0645 73.2908 42.6313 72.455 42.0901 73.3759C41.5052 74.3712 39.4671 76.0516 41.2316 77.0872C42.3718 77.7562 43.7562 77.2494 44.9713 76.5317C45.1206 76.8428 45.4001 77.1136 45.8499 77.3035C47.1735 77.862 48.7337 77.2042 50.1337 76.5038C50.3207 77.2383 50.9915 77.697 51.7175 77.8567C53.6332 78.278 55.6279 77.0837 57.4004 76.5452C58.4189 76.2357 57.9846 74.6338 56.9591 74.9456Z" fill="#1E1E1E"/>
<path d="M74.8274 23.0425L76.3323 17.7605C76.494 17.1931 76.1652 16.6024 75.5977 16.4407L74.0865 16.01C73.519 15.8483 72.9283 16.1772 72.7667 16.7447L71.2617 22.0266L74.8274 23.0425Z" fill="#F0A037"/>
<path d="M72.6669 22.4269L74.4645 16.1178L74.0865 16.0102C73.519 15.8485 72.9283 16.1774 72.7667 16.7448L71.2617 22.0268L72.6669 22.4269Z" fill="#E0B76E"/>
<path d="M71.7556 46.6021C71.4598 46.5179 71.2476 46.2408 71.2581 45.9193C71.371 42.4595 72.0783 39.0756 73.3607 35.8614L76.6959 27.4998C76.9521 26.8577 76.9252 26.1619 76.6202 25.5415C76.3154 24.9209 75.781 24.4749 75.1159 24.2853C74.7512 24.1813 74.5399 23.8013 74.6436 23.4368C74.7475 23.0722 75.1272 22.8607 75.4921 22.9644C76.5204 23.2575 77.3809 23.9758 77.8527 24.9357C78.3243 25.8953 78.3677 27.0156 77.9714 28.0087L74.6361 36.3702C73.4131 39.4362 72.7383 42.6642 72.6307 45.9642C72.6184 46.3433 72.3011 46.6406 71.9221 46.628C71.8643 46.6262 71.8086 46.6172 71.7556 46.6021Z" fill="#E09132"/>
<path d="M76.3451 22.4764L65.8921 59.1655C65.3172 59.1587 64.7061 59.1333 64.0643 59.0858C63.2241 59.0277 62.3303 58.9372 61.3918 58.814C60.7802 58.7355 60.1498 58.643 59.5032 58.5371L70.2703 20.7453C70.432 20.1779 71.0228 19.8492 71.5901 20.0107L75.6107 21.156C76.1778 21.3182 76.5068 21.9092 76.3451 22.4764Z" fill="#20BF55"/>
<path d="M72.3827 20.237L61.3918 58.8144C60.7802 58.7358 60.1498 58.6434 59.5032 58.5374L70.2703 20.7456C70.432 20.1782 71.0228 19.8495 71.5901 20.011L72.3827 20.237Z" fill="#127A35"/>
<path d="M61.0952 64.4757C61.46 64.5796 61.6713 64.9596 61.5675 65.3242L60.1463 70.3126C60.0424 70.6772 59.6627 70.8887 59.2978 70.7849C58.933 70.681 58.7217 70.301 58.8255 69.9364L60.2467 64.948C60.3507 64.5831 60.7305 64.3717 61.0952 64.4757Z" fill="#E09132"/>
<path d="M64.7235 63.2664L72.5256 35.8813C71.0298 35.5136 69.578 35.2015 68.1931 34.9453C67.5514 34.8268 66.9247 34.721 66.3151 34.6259L58.6484 61.5355C58.0077 63.7845 58.2512 66.1816 59.3079 68.2416C59.4517 68.5238 59.6117 68.7994 59.7864 69.0675L60.0369 68.9448C60.0816 68.9232 60.1254 68.9 60.1694 68.8756C60.2328 68.8437 60.2951 68.81 60.3567 68.7748L60.3945 68.7527C60.4735 68.7109 60.5511 68.6644 60.6284 68.6179C62.6125 67.4241 64.0829 65.5156 64.7235 63.2664Z" fill="#20BF55"/>
<path d="M60.9588 68.4064C60.9015 68.2816 60.8469 68.1575 60.7961 68.0302C60.4415 67.1551 60.2215 66.2329 60.1471 65.2966C60.062 64.2172 60.1666 63.119 60.4697 62.0545L68.1933 34.9453C67.5516 34.8268 66.9249 34.721 66.3153 34.6259L58.6484 61.5355C58.0077 63.7845 58.2512 66.1815 59.3079 68.2416C59.4517 68.5238 59.6117 68.7994 59.7864 69.0675L60.0369 68.9448C60.0816 68.9232 60.1254 68.9 60.1694 68.8756C60.2328 68.8437 60.2951 68.81 60.3567 68.7748L60.3945 68.7527C60.4744 68.7082 60.5531 68.6622 60.6296 68.6141C60.7416 68.5475 60.8512 68.4786 60.9588 68.4064Z" fill="#127A35"/>
<path d="M58.9722 60.404L65.047 62.1348L65.4233 60.8141L59.3485 59.0833L58.9722 60.404Z" fill="#127A35"/>
<path d="M59.5828 58.2588L65.6576 59.9896L66.0339 58.6689L59.9591 56.9382L59.5828 58.2588Z" fill="#127A35"/>
<path d="M60.1933 56.1123L66.2681 57.8431L66.6443 56.5224L60.5695 54.7917L60.1933 56.1123Z" fill="#127A35"/>
<path d="M60.8058 53.9671L66.8806 55.6979L67.2569 54.3772L61.1821 52.6464L60.8058 53.9671Z" fill="#127A35"/>
<path d="M61.4169 51.819L67.4917 53.5498L67.868 52.2291L61.7932 50.4983L61.4169 51.819Z" fill="#127A35"/>
</g>
<defs>
<clipPath id="clip0_14_204">
<rect width="85" height="85" fill="white"/>
</clipPath>
</defs>
</svg>
