<svg width="85" height="85" viewBox="0 0 85 85" fill="none" xmlns="http://www.w3.org/2000/svg">
<g clip-path="url(#clip0_15_17)">
<path d="M85 42.5C85 58.9764 75.626 73.2615 61.9199 80.3146C56.0984 83.3087 49.4979 85 42.5 85C35.5021 85 28.8997 83.3087 23.0781 80.3127C9.37405 73.2596 0 58.9745 0 42.5C0 19.0276 19.0276 0 42.5 0C65.9724 0 85 19.0276 85 42.5Z" fill="#0585E8"/>
<path d="M75.8906 32.6367L45.1596 3.06074C43.6908 1.64642 41.3089 1.64642 39.8401 3.06074L9.10912 32.6367C6.73972 34.9177 8.41786 38.8176 11.7696 38.8176H19.8888V78.5C28 83.5 35.5 85 42.5 85C50 85 58.5 83 65.1102 78.5V38.8176H73.2308C76.5818 38.8176 78.2606 34.9177 75.8906 32.6367Z" fill="#F1F1F1"/>
<path d="M26 44.44V38.885C26 35.0125 28.8264 33.6042 32.5219 33.6042C36.1739 33.6042 39.0437 35.0125 39.0437 38.885V44.44C39.0437 48.3132 36.1739 49.7214 32.5219 49.7214C28.8264 49.7214 26 48.3132 26 44.44ZM34.6956 38.885C34.6956 37.594 33.8699 37.0074 32.5219 37.0074C31.1745 37.0074 30.3916 37.594 30.3916 38.885V44.44C30.3916 45.731 31.1745 46.3183 32.5219 46.3183C33.8699 46.3183 34.6956 45.731 34.6956 44.44V38.885ZM52.5216 34.0737C52.5216 34.308 52.4781 34.5821 52.3479 34.8172L37.0437 63.0221C36.739 63.6087 35.9134 64 35.087 64C33.6087 64 32.6521 62.9049 32.6521 61.927C32.6521 61.692 32.7389 61.4185 32.8699 61.1835L48.1307 32.9779C48.4781 32.3132 49.1742 32 49.9564 32C51.1742 32 52.5216 32.8216 52.5216 34.0737ZM45.957 57.0368V51.4819C45.957 47.6094 48.7827 46.2011 52.4789 46.2011C56.1309 46.2011 59 47.6094 59 51.4819V57.0368C59 60.91 56.1309 62.3183 52.4789 62.3183C48.7827 62.3183 45.957 60.91 45.957 57.0368ZM54.6519 51.4819C54.6519 50.1908 53.8262 49.6042 52.4781 49.6042C51.1308 49.6042 50.3479 50.1908 50.3479 51.4819V57.0368C50.3479 58.3279 51.1301 58.9145 52.4781 58.9145C53.8262 58.9145 54.6519 58.3279 54.6519 57.0368V51.4819Z" fill="#20BF55"/>
</g>
<defs>
<clipPath id="clip0_15_17">
<rect width="85" height="85" fill="white"/>
</clipPath>
</defs>
</svg>
