<svg width="60" height="70" viewBox="0 0 60 70" fill="none" xmlns="http://www.w3.org/2000/svg">
<path d="M57.5553 8.32385L30.0978 0.086543C29.7138 -0.0288477 29.3038 -0.0288477 28.9193 0.086543L1.46152 8.32385C0.594043 8.58402 0 9.38246 0 10.2881V40.4914C0 44.4199 1.59031 48.4414 4.72678 52.4441C7.12236 55.5011 10.4364 58.5709 14.5771 61.5681C21.5329 66.6032 28.3823 69.692 28.6705 69.8209C28.9371 69.9403 29.2227 70 29.5084 70C29.794 70 30.0798 69.9404 30.3464 69.8209C30.6346 69.692 37.4838 66.6032 44.4396 61.5681C48.5801 58.5709 51.8942 55.5011 54.2898 52.4441C57.4263 48.4415 59.0166 44.4201 59.0166 40.4914V10.2881C59.0167 9.38246 58.4228 8.58402 57.5553 8.32385ZM54.9151 40.4914C54.9151 47.4439 47.9393 53.9629 42.0874 58.2076C36.8409 62.0129 31.5202 64.7131 29.5086 65.6831C27.4969 64.7131 22.1761 62.0129 16.9296 58.2076C11.0775 53.9629 4.10156 47.4439 4.10156 40.4914V11.8139L29.5084 4.1918L54.9151 11.8139V40.4914Z" fill="#1E1E1E"/>
<path d="M37.9733 32.5206H47.4008C47.5147 32.5207 47.6262 32.5529 47.7223 32.6137C47.8184 32.6744 47.8951 32.7611 47.9434 32.8636C47.9917 32.9661 48.0096 33.0801 47.9951 33.1923C47.9805 33.3046 47.9341 33.4103 47.8612 33.4973L43.1474 39.1192C43.0911 39.1862 43.0207 39.2401 42.9412 39.2771C42.8616 39.3142 42.7749 39.3333 42.687 39.3333C42.5992 39.3333 42.5124 39.3142 42.4329 39.2771C42.3533 39.2401 42.283 39.1862 42.2267 39.1192L37.5129 33.4973C37.44 33.4103 37.3936 33.3046 37.379 33.1923C37.3644 33.0801 37.3824 32.9661 37.4307 32.8636C37.479 32.7611 37.5557 32.6744 37.6518 32.6137C37.7479 32.5529 37.8594 32.5207 37.9733 32.5206ZM11.5992 37.2849H21.0267C21.1406 37.2849 21.2521 37.2526 21.3482 37.1919C21.4443 37.1311 21.521 37.0444 21.5693 36.942C21.6176 36.8395 21.6356 36.7255 21.621 36.6132C21.6064 36.501 21.56 36.3952 21.4871 36.3083L16.7733 30.6863C16.717 30.6193 16.6467 30.5654 16.5671 30.5284C16.4876 30.4914 16.4008 30.4722 16.313 30.4722C16.2251 30.4722 16.1384 30.4914 16.0588 30.5284C15.9793 30.5654 15.9089 30.6193 15.8526 30.6863L11.1388 36.3083C11.0659 36.3952 11.0195 36.501 11.0049 36.6132C10.9904 36.7255 11.0083 36.8395 11.0566 36.942C11.1049 37.0444 11.1816 37.1311 11.2777 37.1919C11.3738 37.2526 11.4853 37.2849 11.5992 37.2849Z" fill="#0585E8"/>
<path fill-rule="evenodd" clip-rule="evenodd" d="M29.1064 22.4122C25.3896 22.4122 22.0656 24.1214 19.8695 26.8073C19.7715 26.9356 19.6488 27.0427 19.509 27.1222C19.3691 27.2018 19.2148 27.2521 19.0553 27.2702C18.8957 27.2883 18.7342 27.2738 18.5803 27.2276C18.4265 27.1815 18.2833 27.1045 18.1595 27.0014C18.0357 26.8983 17.9336 26.7711 17.8595 26.6274C17.7853 26.4836 17.7405 26.3263 17.7278 26.1648C17.7151 26.0032 17.7347 25.8407 17.7854 25.687C17.8361 25.5332 17.917 25.3914 18.0231 25.2698C19.7766 23.1267 22.1029 21.5371 24.7254 20.6901C27.3479 19.8431 30.1563 19.7743 32.8164 20.4919C35.4765 21.2095 37.8765 22.6834 39.7308 24.7381C41.5852 26.7929 42.8159 29.342 43.2766 32.0824H40.8411C40.2881 29.3526 38.8183 26.8992 36.6801 25.1372C34.5419 23.3751 31.8666 22.4126 29.1064 22.4122ZM17.3717 36.9176C17.8251 39.1529 18.8957 41.2131 20.4598 42.8602C22.0239 44.5074 24.0178 45.6742 26.2109 46.2258C28.4041 46.7775 30.7072 46.6915 32.854 45.9779C35.0009 45.2642 36.9039 43.9519 38.3432 42.1927C38.4413 42.0644 38.5639 41.9573 38.7038 41.8778C38.8437 41.7982 38.998 41.7479 39.1575 41.7298C39.317 41.7117 39.4785 41.7262 39.6324 41.7724C39.7863 41.8185 39.9294 41.8955 40.0533 41.9986C40.1771 42.1017 40.2791 42.2289 40.3533 42.3726C40.4274 42.5164 40.4722 42.6737 40.4849 42.8352C40.4977 42.9968 40.4781 43.1593 40.4274 43.313C40.3766 43.4668 40.2958 43.6086 40.1897 43.7302C38.4362 45.8733 36.1098 47.4629 33.4873 48.3099C30.8648 49.1569 28.0565 49.2257 25.3964 48.5081C22.7363 47.7905 20.3363 46.3166 18.4819 44.2619C16.6276 42.2071 15.3969 39.658 14.9362 36.9176H17.3717Z" fill="#0585E8"/>
<path d="M37.9733 32.5206H47.4008C47.5147 32.5207 47.6262 32.5529 47.7223 32.6137C47.8184 32.6744 47.8951 32.7611 47.9434 32.8636C47.9917 32.9661 48.0096 33.0801 47.9951 33.1923C47.9805 33.3046 47.9341 33.4103 47.8612 33.4973L43.1474 39.1192C43.0911 39.1862 43.0207 39.2401 42.9412 39.2771C42.8616 39.3142 42.7749 39.3333 42.687 39.3333C42.5992 39.3333 42.5124 39.3142 42.4329 39.2771C42.3533 39.2401 42.283 39.1862 42.2267 39.1192L37.5129 33.4973C37.44 33.4103 37.3936 33.3046 37.379 33.1923C37.3644 33.0801 37.3824 32.9661 37.4307 32.8636C37.479 32.7611 37.5557 32.6744 37.6518 32.6137C37.7479 32.5529 37.8594 32.5207 37.9733 32.5206ZM11.5992 37.2849H21.0267C21.1406 37.2849 21.2521 37.2526 21.3482 37.1919C21.4443 37.1311 21.521 37.0444 21.5693 36.942C21.6176 36.8395 21.6356 36.7255 21.621 36.6132C21.6064 36.501 21.56 36.3952 21.4871 36.3083L16.7733 30.6863C16.717 30.6193 16.6467 30.5654 16.5671 30.5284C16.4876 30.4914 16.4008 30.4722 16.313 30.4722C16.2251 30.4722 16.1384 30.4914 16.0588 30.5284C15.9793 30.5654 15.9089 30.6193 15.8526 30.6863L11.1388 36.3083C11.0659 36.3952 11.0195 36.501 11.0049 36.6132C10.9904 36.7255 11.0083 36.8395 11.0566 36.942C11.1049 37.0444 11.1816 37.1311 11.2777 37.1919C11.3738 37.2526 11.4853 37.2849 11.5992 37.2849Z" stroke="#0585E8" stroke-width="0.8"/>
<path fill-rule="evenodd" clip-rule="evenodd" d="M29.1064 22.4122C25.3896 22.4122 22.0656 24.1214 19.8695 26.8073C19.7715 26.9356 19.6488 27.0427 19.509 27.1222C19.3691 27.2018 19.2148 27.2521 19.0553 27.2702C18.8957 27.2883 18.7342 27.2738 18.5803 27.2276C18.4265 27.1815 18.2833 27.1045 18.1595 27.0014C18.0357 26.8983 17.9336 26.7711 17.8595 26.6274C17.7853 26.4836 17.7405 26.3263 17.7278 26.1648C17.7151 26.0032 17.7347 25.8407 17.7854 25.687C17.8361 25.5332 17.917 25.3914 18.0231 25.2698C19.7766 23.1267 22.1029 21.5371 24.7254 20.6901C27.3479 19.8431 30.1563 19.7743 32.8164 20.4919C35.4765 21.2095 37.8765 22.6834 39.7308 24.7381C41.5852 26.7929 42.8159 29.342 43.2766 32.0824H40.8411C40.2881 29.3526 38.8183 26.8992 36.6801 25.1372C34.5419 23.3751 31.8666 22.4126 29.1064 22.4122ZM17.3717 36.9176C17.8251 39.1529 18.8957 41.2131 20.4598 42.8602C22.0239 44.5074 24.0178 45.6742 26.2109 46.2258C28.4041 46.7775 30.7072 46.6915 32.854 45.9779C35.0009 45.2642 36.9039 43.9519 38.3432 42.1927C38.4413 42.0644 38.5639 41.9573 38.7038 41.8778C38.8437 41.7982 38.998 41.7479 39.1575 41.7298C39.317 41.7117 39.4785 41.7262 39.6324 41.7724C39.7863 41.8185 39.9294 41.8955 40.0533 41.9986C40.1771 42.1017 40.2791 42.2289 40.3533 42.3726C40.4274 42.5164 40.4722 42.6737 40.4849 42.8352C40.4977 42.9968 40.4781 43.1593 40.4274 43.313C40.3766 43.4668 40.2958 43.6086 40.1897 43.7302C38.4362 45.8733 36.1098 47.4629 33.4873 48.3099C30.8648 49.1569 28.0565 49.2257 25.3964 48.5081C22.7363 47.7905 20.3363 46.3166 18.4819 44.2619C16.6276 42.2071 15.3969 39.658 14.9362 36.9176H17.3717Z" stroke="#0585E8" stroke-width="0.8"/>
</svg>
