<svg width="100" height="101" viewBox="0 0 100 101" fill="none" xmlns="http://www.w3.org/2000/svg">
<path d="M91.1283 78.5538C97.7716 68.924 100.84 57.2749 99.8023 45.622C98.7647 33.9691 93.6865 23.0454 85.4463 14.7408C76.3495 5.53266 64.0134 0.245551 51.0717 0.00833927C38.1301 -0.228872 25.6085 4.60261 16.1804 13.4712C9.52016 14.1997 8.37544 13.9291 7.85512 15.5525C7.33479 17.176 8.22975 17.6339 10.4151 19.7152C-14.956 52.7872 9.02065 100.075 50.0641 100.075C56.6906 100.091 63.2534 98.7807 69.3657 96.2213C75.4781 93.662 81.0164 89.9052 85.6545 85.1724C92.2106 84.4439 93.3553 84.7145 93.9797 83.091C94.6041 81.4676 93.5426 80.9889 91.1283 78.5538ZM78.3907 67.502C76.7673 68.064 77.017 69.1463 76.3094 75.8273C69.9095 82.5129 61.2185 86.5315 51.9796 87.0771C42.7406 87.6227 33.6371 84.6548 26.4949 78.7688C19.3527 72.8828 14.7001 64.514 13.4703 55.3411C12.2406 46.1681 14.5246 36.8693 19.8643 29.31C21.3212 30.7669 21.9456 31.6411 23.3609 31.1416C24.7762 30.642 24.7137 29.5389 25.4422 23.0036C31.9435 17.0727 40.3627 13.6804 49.1598 13.4473C57.9569 13.2143 66.5439 16.156 73.3502 21.7343C80.1564 27.3127 84.727 35.155 86.2258 43.8266C87.7247 52.4982 86.0516 61.4196 81.5127 68.9589C80.4304 67.8767 79.7644 67.0233 78.3907 67.502ZM78.5988 85.9424C69.7535 93.0739 58.5727 96.662 47.2293 96.0094C35.886 95.3568 25.1904 90.5101 17.2213 82.4113C9.25223 74.3125 4.57889 63.54 4.10956 52.1876C3.64022 40.8352 7.40842 29.7138 14.6818 20.9848C15.027 20.6023 15.218 20.1055 15.218 19.5903C15.218 19.0751 15.027 18.5783 14.6818 18.1958C14.2447 17.7379 13.1833 17.9669 21.9872 17.0095L21.1339 24.6271C20.9233 24.4261 20.6728 24.2716 20.3988 24.1734C20.1247 24.0753 19.8331 24.0357 19.5428 24.0573C19.2526 24.0789 18.97 24.1611 18.7135 24.2987C18.4569 24.4363 18.2321 24.6261 18.0535 24.856C-3.21745 51.7049 16.222 90.9584 50.0641 90.9584C59.3426 90.9797 68.3484 87.8211 75.5809 82.0088L75.3936 83.7363C75.3642 84.18 75.4776 84.6214 75.7173 84.996C75.957 85.3705 76.3104 85.6584 76.7256 85.8176C77.3272 86.0281 77.9746 86.0713 78.5988 85.9424ZM79.8268 81.6133L80.6801 73.9541C81.1305 74.2701 81.6876 74.3949 82.2297 74.3013C82.7718 74.2077 83.2548 73.9033 83.5732 73.4546C89.0839 65.5374 91.614 55.9249 90.715 46.3206C89.8161 36.7163 85.5462 27.7403 78.662 20.9832C71.7777 14.2262 62.7237 10.1243 53.1043 9.40459C43.4849 8.68485 33.9213 11.3937 26.1082 17.0511L26.3371 14.9698C26.3857 14.6306 26.3498 14.2846 26.2326 13.9626C26.1153 13.6406 25.9204 13.3525 25.665 13.1239C25.4097 12.8954 25.1019 12.7334 24.7689 12.6524C24.4359 12.5714 24.0881 12.5738 23.7563 12.6595C32.5557 6.40903 43.2914 3.49203 54.044 4.43002C64.7966 5.36801 74.865 10.0998 82.4492 17.7795C90.1948 25.5878 94.8861 35.913 95.6726 46.8831C96.4592 57.8532 93.289 68.7421 86.7367 77.5756C86.4337 77.9761 86.2858 78.4728 86.3202 78.9739C86.3546 79.475 86.5691 79.9467 86.9241 80.3021C87.6733 80.9889 88.6099 80.6559 79.8268 81.6133Z" fill="#20BF55"/>
<path d="M66.4957 40.9784C65.9522 39.8462 66.3259 40.3624 57.2725 31.5044C55.3531 29.6229 54.368 30.0392 38.0957 30.0392C36.7442 30.0392 35.4481 30.5654 34.4925 31.5022C33.5369 32.439 33 33.7095 33 35.0343V65.0049C33 66.3297 33.5369 67.6002 34.4925 68.537C35.4481 69.4737 36.7442 70 38.0957 70H61.8756C63.2271 70 64.5232 69.4737 65.4788 68.537C66.4345 67.6002 66.9713 66.3297 66.9713 65.0049C66.9713 41.3781 67.1752 42.3771 66.4957 40.9784ZM61.1792 40.0294H56.7799V35.7169L61.1792 40.0294ZM61.8756 66.6699H38.0957C37.6452 66.6699 37.2132 66.4945 36.8946 66.1823C36.5761 65.87 36.3971 65.4465 36.3971 65.0049V35.0343C36.3971 34.5927 36.5761 34.1692 36.8946 33.8569C37.2132 33.5447 37.6452 33.3692 38.0957 33.3692H53.3828V41.6944C53.3828 42.136 53.5618 42.5595 53.8803 42.8718C54.1988 43.184 54.6309 43.3594 55.0814 43.3594H63.5742V65.0049C63.5742 65.4465 63.3952 65.87 63.0767 66.1823C62.7582 66.4945 62.3261 66.6699 61.8756 66.6699Z" fill="#20BF55"/>
<path d="M51.375 45H41.625C41.194 45 40.7807 45.158 40.476 45.4393C40.1712 45.7206 40 46.1022 40 46.5C40 46.8978 40.1712 47.2794 40.476 47.5607C40.7807 47.842 41.194 48 41.625 48H51.375C51.806 48 52.2193 47.842 52.524 47.5607C52.8288 47.2794 53 46.8978 53 46.5C53 46.1022 52.8288 45.7206 52.524 45.4393C52.2193 45.158 51.806 45 51.375 45Z" fill="#20BF55"/>
<path d="M51.375 52H41.625C41.194 52 40.7807 52.158 40.476 52.4393C40.1712 52.7206 40 53.1022 40 53.5C40 53.8978 40.1712 54.2794 40.476 54.5607C40.7807 54.842 41.194 55 41.625 55H51.375C51.806 55 52.2193 54.842 52.524 54.5607C52.8288 54.2794 53 53.8978 53 53.5C53 53.1022 52.8288 52.7206 52.524 52.4393C52.2193 52.158 51.806 52 51.375 52Z" fill="#20BF55"/>
<path d="M51.375 59H41.625C41.194 59 40.7807 59.158 40.476 59.4393C40.1712 59.7206 40 60.1022 40 60.5C40 60.8978 40.1712 61.2794 40.476 61.5607C40.7807 61.842 41.194 62 41.625 62H51.375C51.806 62 52.2193 61.842 52.524 61.5607C52.8288 61.2794 53 60.8978 53 60.5C53 60.1022 52.8288 59.7206 52.524 59.4393C52.2193 59.158 51.806 59 51.375 59Z" fill="#20BF55"/>
</svg>
